HIERARCHY
ROOT joint_0
{
	OFFSET 0.000000 0.000000 0.000000
	CHANNELS 6 Xposition Yposition Zposition Zrotation Yrotation Xrotation 
	JOINT joint_1
	{
		OFFSET 6.004005 -1.946999 100.587036
		CHANNELS 3 Zrotation Yrotation Xrotation
		JOINT joint_2
		{
			OFFSET -4.601006 -0.824997 91.925903
			CHANNELS 3 Zrotation Yrotation Xrotation
			JOINT joint_3
			{
				OFFSET -5.420998 -1.130005 91.774048
				CHANNELS 3 Zrotation Yrotation Xrotation
				JOINT joint_4
				{
					OFFSET 4.308998 -3.777992 123.473999
					CHANNELS 3 Zrotation Yrotation Xrotation
					JOINT joint_5
					{
						OFFSET 25.565002 -6.305008 79.437988
						CHANNELS 3 Zrotation Yrotation Xrotation
						End Site
						{
							OFFSET 0.000000 0.000000 0.000000
						}
					}
				}
				JOINT joint_6
				{
					OFFSET -1.750000 -28.655998 68.557983
					CHANNELS 3 Zrotation Yrotation Xrotation
					JOINT joint_7
					{
						OFFSET -17.692001 -116.544006 -17.244019
						CHANNELS 3 Zrotation Yrotation Xrotation
						JOINT joint_8
						{
							OFFSET 27.063004 -23.640991 -266.895020
							CHANNELS 3 Zrotation Yrotation Xrotation
							JOINT joint_9
							{
								OFFSET 40.722000 -15.761017 -232.488953
								CHANNELS 3 Zrotation Yrotation Xrotation
								End Site
								{
									OFFSET 0.000000 0.000000 0.000000
								}
							}
						}
					}
				}
				JOINT joint_10
				{
					OFFSET 6.593002 24.457001 69.892944
					CHANNELS 3 Zrotation Yrotation Xrotation
					JOINT joint_11
					{
						OFFSET 24.311996 114.920002 -19.872925
						CHANNELS 3 Zrotation Yrotation Xrotation
						JOINT joint_12
						{
							OFFSET 21.081001 15.319000 -268.037964
							CHANNELS 3 Zrotation Yrotation Xrotation
							JOINT joint_13
							{
								OFFSET 27.794006 -8.947001 -234.744080
								CHANNELS 3 Zrotation Yrotation Xrotation
								End Site
								{
									OFFSET 0.000000 0.000000 0.000000
								}
							}
						}
					}
				}
			}
		}
	}
	JOINT joint_14
	{
		OFFSET -6.627998 -80.520004 -98.790039
		CHANNELS 3 Zrotation Yrotation Xrotation
		JOINT joint_15
		{
			OFFSET -43.638000 -13.751999 -502.538971
			CHANNELS 3 Zrotation Yrotation Xrotation
			JOINT joint_16
			{
				OFFSET -39.532999 -9.912994 -398.071007
				CHANNELS 3 Zrotation Yrotation Xrotation
				JOINT joint_17
				{
					OFFSET 174.940004 -34.660995 -75.688002
					CHANNELS 3 Zrotation Yrotation Xrotation
					End Site
					{
						OFFSET 0.000000 0.000000 0.000000
					}
				}
			}
		}
	}
	JOINT joint_18
	{
		OFFSET 12.591003 79.842003 -98.765015
		CHANNELS 3 Zrotation Yrotation Xrotation
		JOINT joint_19
		{
			OFFSET -39.080002 -1.297001 -503.101013
			CHANNELS 3 Zrotation Yrotation Xrotation
			JOINT joint_20
			{
				OFFSET -51.570000 -0.514000 -396.815987
				CHANNELS 3 Zrotation Yrotation Xrotation
				JOINT joint_21
				{
					OFFSET 178.987999 -11.521999 -73.244003
					CHANNELS 3 Zrotation Yrotation Xrotation
					End Site
					{
						OFFSET 0.000000 0.000000 0.000000
					}
				}
			}
		}
	}
}
MOTION
Frames: 10
Frame Time: 0.016667
85.205000 -121.638000 1096.326050 0.942457 0.173007 -0.366273 0.327637 -1.340703 0.500134 0.307730 0.118694 -0.189048 0.322514 -0.159744 0.116615 0.043023 0.141383 -0.098358 0.000000 0.000000 0.000000 2.510117 0.671540 2.075824 -0.347403 1.585726 -1.153429 -0.165296 -0.433109 -1.107451 0.000000 0.000000 0.000000 -0.728083 0.661747 -0.221177 0.135889 0.984193 -1.039954 0.324051 -0.675200 2.548692 0.000000 0.000000 0.000000 0.332195 0.444802 -1.194909 0.131802 -0.425166 1.389629 0.220081 0.690413 0.231962 0.000000 0.000000 0.000000 0.071274 -0.925636 1.638876 0.279291 0.258098 -1.057577 0.125308 1.091691 0.121530 0.000000 0.000000 0.000000 
86.579000 -122.270000 1096.462040 1.163155 0.452956 -0.350002 0.483455 -1.382141 0.417444 0.469995 0.142621 -0.157859 0.480365 -0.215673 0.089717 0.002317 -0.146412 -0.043928 0.000000 0.000000 0.000000 1.993618 1.024754 2.164291 -0.371806 1.892809 -1.231351 -0.076758 -0.966381 -0.810773 0.000000 0.000000 0.000000 -0.706444 0.682843 -0.191495 0.154684 0.993386 -0.956761 0.317999 -0.861532 2.451236 0.000000 0.000000 0.000000 0.257042 0.322369 -1.196539 0.050712 -0.590491 1.470398 0.145896 0.699586 0.201692 0.000000 0.000000 0.000000 0.008008 -1.119078 1.717529 0.231150 0.139449 -1.170137 0.065373 1.122077 0.098974 0.000000 0.000000 0.000000 
89.759000 -123.304000 1096.709960 1.410402 1.239834 -0.257596 0.578232 -1.601405 0.239788 0.580787 0.214959 -0.068585 0.579593 -0.322703 0.020448 -0.054749 -1.173911 -0.127197 0.000000 0.000000 0.000000 2.055699 1.852877 1.685601 -0.382308 2.513968 -0.260239 -0.033170 -2.348795 -1.070608 0.000000 0.000000 0.000000 -0.321858 0.851876 0.558775 0.203379 1.368136 -1.453904 0.302541 -1.796881 2.053012 0.000000 0.000000 0.000000 0.208761 -0.185835 -1.280134 -0.020227 -0.879023 1.579912 0.080914 0.722877 0.178195 0.000000 0.000000 0.000000 -0.084380 -1.688179 1.793314 0.159783 -0.158641 -1.362348 -0.026996 1.200891 0.066281 0.000000 0.000000 0.000000 
94.403000 -124.688000 1097.060060 1.698127 2.421108 -0.101818 0.640313 -1.933850 -0.003396 0.665225 0.323650 0.066814 0.645795 -0.486430 -0.096173 -0.125371 -2.809702 -0.337505 0.000000 0.000000 0.000000 2.478227 3.062204 0.892547 -0.400479 3.410039 1.448203 -0.030273 -4.446375 -1.752240 0.000000 0.000000 0.000000 0.399317 1.143347 1.821890 0.263078 1.993513 -2.303107 0.261865 -3.299388 1.348170 0.000000 0.000000 0.000000 0.177277 -0.974798 -1.428153 -0.086087 -1.293011 1.715696 0.019730 0.773653 0.161785 0.000000 0.000000 0.000000 -0.206524 -2.538653 1.876625 0.064748 -0.619404 -1.628283 -0.151385 1.333896 0.024017 0.000000 0.000000 0.000000 
99.626000 -126.165000 1097.470950 2.002496 3.717930 0.055261 0.647590 -2.314257 -0.254019 0.692740 0.409576 0.170359 0.658471 -0.632816 -0.194016 -0.201489 -4.489043 -0.565058 0.000000 0.000000 0.000000 2.969535 4.065622 0.380443 -0.431644 4.214392 2.765656 -0.054948 -6.018528 -2.348204 0.000000 0.000000 0.000000 1.021260 1.531255 2.898081 0.312779 2.635827 -2.870627 0.203912 -4.699201 0.638897 0.000000 0.000000 0.000000 0.107535 -1.958418 -1.534300 -0.192578 -1.525603 1.806603 -0.080802 0.835212 0.130531 0.000000 0.000000 0.000000 -0.292670 -3.557585 1.946243 0.001296 -0.929873 -1.867022 -0.242601 1.517752 -0.001361 0.000000 0.000000 0.000000 
105.029000 -127.547000 1097.904050 2.312293 5.069420 0.181675 0.561755 -2.832057 -0.505386 0.621824 0.442854 0.183624 0.583959 -0.708699 -0.213878 -0.286689 -5.896177 -0.703060 0.000000 0.000000 0.000000 3.454203 4.489890 0.439862 -0.463580 4.700652 2.932105 -0.062998 -6.191100 -2.423571 0.000000 0.000000 0.000000 1.198442 2.100783 3.324435 0.380644 3.269615 -2.812110 0.164848 -5.789861 0.173708 0.000000 0.000000 0.000000 -0.061040 -3.171832 -1.540826 -0.397652 -1.462319 1.824403 -0.278887 0.948943 0.067525 0.000000 0.000000 0.000000 -0.286664 -4.749393 1.990483 0.023643 -0.985957 -2.061867 -0.247854 1.836324 0.017097 0.000000 0.000000 0.000000 
110.942000 -128.931000 1098.373050 2.637681 6.574993 0.303021 0.391772 -3.497294 -0.770614 0.462192 0.447256 0.126415 0.428734 -0.759552 -0.177194 -0.388244 -7.244613 -0.774267 0.000000 0.000000 0.000000 4.053425 4.564330 0.830414 -0.493878 5.013465 2.379829 -0.054077 -5.437302 -2.149254 0.000000 0.000000 0.000000 1.086008 2.876659 3.324029 0.472799 3.984688 -2.347594 0.148736 -6.829737 -0.136630 0.000000 0.000000 0.000000 -0.308166 -4.639524 -1.482512 -0.684165 -1.226279 1.792977 -0.559207 1.133716 -0.016803 0.000000 0.000000 0.000000 -0.211731 -6.148496 2.012557 0.112659 -0.911677 -2.250439 -0.190336 2.305599 0.070921 0.000000 0.000000 0.000000 
116.595000 -130.405000 1098.935060 2.939383 7.752891 0.384454 0.242262 -3.846353 -0.971266 0.316207 0.433364 0.078694 0.286970 -0.777571 -0.146392 -0.470285 -8.286679 -0.822901 0.000000 0.000000 0.000000 4.629834 4.441889 1.142413 -0.502201 5.102123 1.882378 -0.098911 -4.233883 -2.037956 0.000000 0.000000 0.000000 0.692298 3.353430 3.218296 0.526353 4.397053 -1.771472 0.169583 -7.011927 -0.092558 0.000000 0.000000 0.000000 -0.517096 -6.035438 -1.320108 -0.928689 -0.393357 1.650037 -0.786914 1.092776 -0.123013 0.000000 0.000000 0.000000 -0.132731 -7.476119 1.957330 0.180848 -0.226492 -2.187991 -0.119792 2.465094 0.109996 0.000000 0.000000 0.000000 
121.352000 -132.133000 1099.701050 3.225056 8.222532 0.400149 0.190759 -3.500470 -1.067883 0.264846 0.407424 0.124289 0.232234 -0.713184 -0.172521 -0.497579 -8.845590 -0.930660 0.000000 0.000000 0.000000 5.095454 4.167657 1.067605 -0.459934 4.847486 2.079275 -0.292930 -2.579811 -2.560103 0.000000 0.000000 0.000000 -0.084190 3.052933 3.292177 0.467117 4.151868 -1.327786 0.227455 -5.306479 0.568547 0.000000 0.000000 0.000000 -0.615409 -7.142716 -1.004412 -1.048924 1.455941 1.303542 -0.872932 0.639574 -0.249698 0.000000 0.000000 0.000000 -0.104629 -8.578916 1.749101 0.147571 1.580149 -1.601797 -0.073215 1.960357 0.096378 0.000000 0.000000 0.000000 
125.515000 -134.086000 1100.651980 3.505492 8.168756 0.356223 0.199592 -2.632184 -1.086551 0.273249 0.360660 0.238214 0.232341 -0.561832 -0.233576 -0.483063 -9.026559 -1.077408 0.000000 0.000000 0.000000 5.500084 3.679985 0.753743 -0.398860 4.270604 2.662075 -0.630330 -0.286943 -3.494139 0.000000 0.000000 0.000000 -1.252712 2.182190 3.394248 0.273200 3.378653 -0.832960 0.273332 -1.972523 1.702984 0.000000 0.000000 0.000000 -0.657150 -8.087272 -0.550227 -1.100648 4.151281 0.786874 -0.876148 -0.000505 -0.377371 0.000000 0.000000 0.000000 -0.094932 -9.558265 1.406221 0.054075 4.304100 -0.571608 -0.012004 1.092098 0.065403 0.000000 0.000000 0.000000 
